<?xml version="1.0" encoding="UTF-8" standalone="no"?>
<svg
   width="89.075119pt"
   height="113.38582pt"
   version="1.1"
   viewBox="0 0 89.075119 113.38582"
   id="svg52"
   xmlns="http://www.w3.org/2000/svg"
   xmlns:svg="http://www.w3.org/2000/svg">
  <defs
     id="defs56" />
  <g
     id="g50"
     transform="matrix(0.23128744,0,0,0.23128744,-36.437229,-8.0466362)">
    <path
       d="m 520.98,137.73 -348.43,49.699 c -4.7227,0.69141 -8.9609,3.2852 -11.727,7.1758 -2.793,3.8945 -3.8711,8.7656 -2.9727,13.473 l 52.148,274.05 c 2.9219,12.395 10.004,23.414 20.066,31.215 10.066,7.8047 22.5,11.918 35.234,11.66 h 166.77 c 13.07,0.39844 25.852,-3.875 36.051,-12.055 10.199,-8.1797 17.148,-19.727 19.602,-32.57 l 53.023,-322.88 c 0.96094,-5.5391 -0.79688,-11.203 -4.7266,-15.227 -4.0117,-3.8086 -9.5938,-5.4961 -15.047,-4.5469 z m -227.5,315 -29.051,-210 c -0.875,-6.2539 1.6523,-12.496 6.6289,-16.383 4.9766,-3.8828 11.645,-4.8164 17.5,-2.4492 5.8516,2.3672 9.9961,7.6797 10.871,13.93 l 29.051,210 c 0.59766,4.5664 -0.62891,9.1875 -3.4141,12.855 -2.7852,3.6719 -6.9023,6.0938 -11.461,6.7461 h -2.1016 c -4.1406,0.0195 -8.1523,-1.4297 -11.324,-4.0898 -3.1719,-2.6602 -5.2969,-6.3555 -6,-10.438 z m 92.75,15.051 -1.2266,-0.004 c -4.5938,-0.60938 -8.7539,-3.0156 -11.574,-6.6875 -2.8242,-3.6758 -4.0703,-8.3164 -3.4766,-12.91 l 29.227,-210 c 0.65234,-4.5625 3.0742,-8.6797 6.7422,-11.465 3.6719,-2.7852 8.2891,-4.0117 12.855,-3.4102 4.6289,0.60938 8.8203,3.0391 11.645,6.75 2.8281,3.7148 4.0547,8.4023 3.4062,13.023 l -29.227,210 h 0.004 c -0.63672,4.2031 -2.7852,8.0312 -6.0352,10.77 -3.2539,2.7383 -7.3906,4.1953 -11.641,4.1055 z"
       id="path46" />
    <path
       d="m 179.9,157.5 h 2.4492 l 95.023,-13.477 h 3.5039 c 0.86328,-0.12891 1.6953,-0.42578 2.4492,-0.875 l 150.32,-20.648 c 0.81641,0.0859 1.6367,0.0859 2.4531,0 l 2.4492,-0.875 88.898,-12.602 c 6.2539,-0.875 11.562,-5.0195 13.93,-10.871 2.3711,-5.8516 1.4375,-12.523 -2.4492,-17.5 -3.8828,-4.9766 -10.129,-7.5039 -16.379,-6.6289 l -74.023,10.5 -4.7266,-35 c -0.64453,-4.332 -2.8945,-8.2656 -6.3008,-11.023 -3.8125,-2.9805 -8.6914,-4.2461 -13.477,-3.5 l -155.4,22.227 c -4.5938,0.64844 -8.7422,3.0977 -11.531,6.8047 -2.7891,3.7109 -3.9922,8.375 -3.3438,12.969 l 4.8984,35 -81.199,10.5 c -6.25,0.4375 -11.797,4.1758 -14.543,9.8125 -2.7461,5.6328 -2.2773,12.301 1.2266,17.5 3.5039,5.1953 9.5156,8.125 15.766,7.6875 z m 110.95,-68.426 120.75,-17.5 2.2734,17.5 -120.57,17.5 z"
       id="path48" />
  </g>
</svg>
